<svg preserveAspectRatio="none" overflow="visible" style="display: block;" width="88" height="88" viewBox="0 0 88 88" fill="none" xmlns="http://www.w3.org/2000/svg">
<g id="check_circle_outline">
<path id="Vector" d="M60.83 27.7933L36.6667 51.9567L23.5033 38.83L18.3333 44L36.6667 62.3333L66 33L60.83 27.7933ZM44 7.33333C23.76 7.33333 7.33333 23.76 7.33333 44C7.33333 64.24 23.76 80.6667 44 80.6667C64.24 80.6667 80.6667 64.24 80.6667 44C80.6667 23.76 64.24 7.33333 44 7.33333ZM44 73.3333C27.7933 73.3333 14.6667 60.2067 14.6667 44C14.6667 27.7933 27.7933 14.6667 44 14.6667C60.2067 14.6667 73.3333 27.7933 73.3333 44C73.3333 60.2067 60.2067 73.3333 44 73.3333Z" fill="#28A745"/>
</g>
</svg>
